HIERARCHY
ROOT Hips
{
 OFFSET 0.000000 0.000000 0.000000
 CHANNELS 6 Xposition Yposition Zposition Yrotation Xrotation Zrotation
 JOINT Chest
 {
  OFFSET 0.000000 9.588913 -0.003946
  CHANNELS 3 Yrotation Xrotation Zrotation
  JOINT Chest2
  {
   OFFSET 0.000000 9.541882 0.008053
   CHANNELS 3 Yrotation Xrotation Zrotation
   JOINT Chest3
   {
    OFFSET 0.000000 9.501360 0.000000
    CHANNELS 3 Yrotation Xrotation Zrotation
    JOINT Chest4
    {
     OFFSET 0.000000 9.491660 0.000000
     CHANNELS 3 Yrotation Xrotation Zrotation
     JOINT Neck
     {
      OFFSET 0.000000 14.331917 0.000000
      CHANNELS 3 Yrotation Xrotation Zrotation
      JOINT Head
      {
       OFFSET 0.000000 8.884799 0.017034
       CHANNELS 3 Yrotation Xrotation Zrotation
       End Site
       {
        OFFSET 0.000000 16.896195 0.008993
       }
      }
     }
     JOINT RightCollar
     {
      OFFSET -2.923010 9.499495 0.000000
      CHANNELS 3 Yrotation Xrotation Zrotation
      JOINT RightShoulder
      {
       OFFSET -13.795216 0.000000 0.000000
       CHANNELS 3 Yrotation Xrotation Zrotation
       JOINT RightElbow
       {
        OFFSET -30.272209 0.000000 0.000000
        CHANNELS 3 Yrotation Xrotation Zrotation
        JOINT RightWrist
        {
         OFFSET -24.478199 0.000000 0.000000
         CHANNELS 3 Yrotation Xrotation Zrotation
         End Site
         {
          OFFSET -18.090752 0.000000 0.000000
         }
        }
       }
      }
     }
     JOINT LeftCollar
     {
      OFFSET 2.923010 9.499495 0.000000
      CHANNELS 3 Yrotation Xrotation Zrotation
      JOINT LeftShoulder
      {
       OFFSET 13.795216 0.000000 0.000000
       CHANNELS 3 Yrotation Xrotation Zrotation
       JOINT LeftElbow
       {
        OFFSET 30.272209 0.000000 0.000000
        CHANNELS 3 Yrotation Xrotation Zrotation
        JOINT LeftWrist
        {
         OFFSET 24.478199 0.000000 0.000000
         CHANNELS 3 Yrotation Xrotation Zrotation
         End Site
         {
          OFFSET 18.090752 0.000000 0.000000
         }
        }
       }
      }
     }
    }
   }
  }
 }
 JOINT RightHip
 {
  OFFSET -7.826875 0.019532 0.001973
  CHANNELS 3 Yrotation Xrotation Zrotation
  JOINT RightKnee
  {
   OFFSET 0.000000 -40.546152 -0.001885
   CHANNELS 3 Yrotation Xrotation Zrotation
   JOINT RightAnkle
   {
    OFFSET 0.000000 -39.417092 -0.003189
    CHANNELS 3 Yrotation Xrotation Zrotation
    JOINT RightToe
    {
     OFFSET 0.000000 -7.579396 17.243563
     CHANNELS 3 Yrotation Xrotation Zrotation
     End Site
     {
      OFFSET 0.000000 -1.500329 6.694466
     }
    }
   }
  }
 }
 JOINT LeftHip
 {
  OFFSET 7.826875 0.019532 0.001973
  CHANNELS 3 Yrotation Xrotation Zrotation
  JOINT LeftKnee
  {
   OFFSET 0.000000 -40.546152 -0.001885
   CHANNELS 3 Yrotation Xrotation Zrotation
   JOINT LeftAnkle
   {
    OFFSET 0.000000 -39.417092 -0.003189
    CHANNELS 3 Yrotation Xrotation Zrotation
    JOINT LeftToe
    {
     OFFSET 0.000000 -7.579396 17.243563
     CHANNELS 3 Yrotation Xrotation Zrotation
     End Site
     {
      OFFSET 0.000000 -1.500329 6.694466
     }
    }
   }
  }
 }
}
MOTION
Frames: 8
Frame Time: 0.008333
-4.459579 87.552112 4.531854 -39.577022 5.519633 -5.243128 -4.124847 15.871907 -5.000135 -2.184657 9.097951 -2.735714 -2.808512 11.354728 -3.485624 -2.184666 9.097945 -2.735707 11.593715 18.667535 -1.560164 21.718943 -0.069097 -6.425319 5.321760 -2.419023 -5.110501 7.224045 -3.208986 89.938226 48.241106 1.831740 19.884066 -1.676930 -0.696780 -1.460672 -7.406628 -2.175465 -1.555375 3.729245 -32.141933 -63.340793 3.274762 -0.478858 5.736621 -10.393588 -6.733405 23.081555 -5.754455 -15.754323 12.412331 -0.147778 15.486897 -1.804391 -6.184571 -4.739188 -3.062726 -0.009964 0.237901 0.344322 -4.491629 -25.056691 7.842407 -2.707778 24.544774 -0.399549 2.982864 -4.903506 -3.713237 -0.023401 0.074390 -0.030508
-4.339094 87.390641 4.161573 -39.395335 5.784187 -5.346141 -4.119564 15.925670 -4.937569 -2.201597 9.128002 -2.740841 -2.830178 11.392120 -3.492744 -2.201607 9.127999 -2.740836 11.534066 18.583018 -1.498527 21.601252 -0.245411 -6.310929 5.330418 -2.462524 -5.136060 7.152570 -3.192271 89.932297 48.474301 1.816067 19.986928 -1.625330 -0.726731 -1.494943 -7.490048 -2.252929 -1.524284 3.814773 -32.372382 -63.073749 3.466285 -0.606621 5.723738 -10.397598 -6.702283 23.048143 -5.940625 -16.177299 12.731955 -0.042822 15.453267 -1.744252 -6.391182 -4.612831 -3.430988 0.002351 0.302567 0.403026 -4.692076 -26.023410 7.964403 -2.762165 25.395512 -0.162939 2.899515 -5.017311 -3.942401 -0.030203 0.043838 -0.025504
-4.220811 87.221705 3.792005 -39.252352 6.031548 -5.471896 -4.093015 15.987100 -4.870022 -2.205184 9.159656 -2.739132 -2.834945 11.431667 -3.490971 -2.205193 9.159656 -2.739128 11.465948 18.492776 -1.440465 21.469669 -0.432710 -6.201304 5.330545 -2.509269 -5.173833 7.080445 -3.153649 89.915145 48.729370 1.762944 20.111707 -1.575325 -0.762177 -1.524164 -7.570592 -2.355073 -1.511473 3.907470 -32.608850 -62.824000 3.646874 -0.709349 5.717477 -10.402834 -6.663941 22.994445 -6.047670 -16.621837 13.043247 0.027030 15.459041 -1.663045 -6.627260 -4.497011 -3.775847 0.011284 0.366827 0.431919 -4.822262 -27.010911 8.106750 -2.808022 26.313053 0.058482 2.750235 -5.164493 -4.158397 -0.035770 0.004346 -0.015734
-4.107196 87.049090 3.423882 -39.152660 6.260254 -5.636511 -4.043264 16.057078 -4.786308 -2.196997 9.194968 -2.730760 -2.824816 11.475924 -3.480577 -2.197006 9.194970 -2.730757 11.391996 18.393283 -1.389881 21.330621 -0.636323 -6.104854 5.333931 -2.563655 -5.224022 7.020364 -3.100105 89.882449 48.999530 1.671327 20.244845 -1.527206 -0.800997 -1.549711 -7.643264 -2.479073 -1.515258 4.004045 -32.850610 -62.581680 3.809920 -0.800999 5.710311 -10.410694 -6.616679 22.924346 -6.089743 -17.098117 13.356508 0.054655 15.538728 -1.558326 -6.854251 -4.430474 -4.089983 0.020475 0.446710 0.432895 -4.900456 -27.998848 8.298472 -2.841433 27.269391 0.251040 2.535546 -5.341825 -4.354540 -0.041549 -0.038263 -0.001913
-4.001257 86.876793 3.057572 -39.097379 6.471583 -5.855603 -3.966587 16.133693 -4.670103 -2.179639 9.234816 -2.717429 -2.803102 11.525954 -3.463768 -2.179648 9.234819 -2.717426 11.315095 18.281784 -1.350090 21.190749 -0.860283 -6.028883 5.346214 -2.627984 -5.283352 6.982492 -3.042380 89.831067 49.273608 1.547054 20.374735 -1.480091 -0.838937 -1.572871 -7.708190 -2.614493 -1.528095 4.105472 -33.094955 -62.344093 3.949332 -0.889239 5.698523 -10.422275 -6.565497 22.852656 -6.099143 -17.607691 13.697962 0.050559 15.714279 -1.429448 -7.071531 -4.453980 -4.381301 0.033682 0.564600 0.415315 -4.965634 -28.961587 8.571220 -2.859371 28.224642 0.406735 2.272106 -5.529283 -4.529868 -0.047929 -0.087315 0.014467
-3.898972 86.707725 2.698923 -39.072797 6.670191 -6.084651 -3.889472 16.213491 -4.562701 -2.157403 9.277442 -2.702009 -2.775240 11.579506 -3.444234 -2.157410 9.277445 -2.702006 11.239311 18.157795 -1.323742 21.058423 -1.104419 -5.979493 5.374202 -2.701789 -5.344671 6.973758 -2.992050 89.756917 49.540064 1.402247 20.494369 -1.438943 -0.873405 -1.594062 -7.763622 -2.748753 -1.543910 4.205995 -33.334241 -62.106511 4.053834 -0.987595 5.684426 -10.440072 -6.516817 22.787203 -6.109278 -18.133760 14.029404 0.036695 15.940507 -1.280395 -7.267564 -4.482616 -4.648766 0.048007 0.663129 0.382794 -5.058073 -29.893409 8.888403 -2.839808 29.178044 0.529054 1.967834 -5.741501 -4.683653 -0.051535 -0.132993 0.033018
-3.801621 86.545449 2.347433 -39.078288 6.869753 -6.324604 -3.814899 16.289575 -4.459834 -2.134557 9.320139 -2.687098 -2.746622 11.633145 -3.425317 -2.134562 9.320141 -2.687094 11.169105 18.022916 -1.312779 20.942313 -1.364828 -5.961312 5.424598 -2.781985 -5.405471 7.002033 -2.962624 89.659098 49.789094 1.246265 20.595360 -1.409515 -0.905905 -1.610787 -7.801204 -2.872197 -1.560841 4.294870 -33.563741 -61.859685 4.115220 -1.108670 5.669602 -10.468020 -6.472926 22.722765 -6.157148 -18.678884 14.367400 0.033191 16.220605 -1.122781 -7.412484 -4.537011 -4.887271 0.066721 0.758709 0.338397 -5.219331 -30.790227 9.271798 -2.771405 30.111380 0.617243 1.623486 -5.961023 -4.817184 -0.055402 -0.184115 0.050197
-3.708482 86.392748 2.005224 -39.104594 7.079300 -6.552752 -3.753485 16.358419 -4.378295 -2.113972 9.361341 -2.676079 -2.720921 11.684873 -3.411320 -2.113976 9.361342 -2.676075 11.106726 17.879009 -1.315114 20.845781 -1.638191 -5.970994 5.492598 -2.861560 -5.457928 7.069425 -2.969792 89.537822 50.013971 1.084399 20.670060 -1.393413 -0.936642 -1.620206 -7.822785 -2.981778 -1.572390 4.365352 -33.779893 -61.594750 4.131503 -1.256927 5.654315 -10.501713 -6.440716 22.652910 -6.269988 -19.240236 14.701325 0.057715 16.545850 -0.962468 -7.497976 -4.607776 -5.095839 0.088698 0.843757 0.285094 -5.449255 -31.652693 9.697260 -2.686270 31.017849 0.662891 1.250886 -6.179986 -4.929172 -0.060541 -0.244266 0.062782
